<!-- Generated by scripts/generate-readme-overview-art.mjs -->
<svg xmlns="http://www.w3.org/2000/svg" width="1200" height="675" viewBox="0 0 1200 675" role="img" aria-labelledby="p5x4qlz-title p5x4qlz-desc">
  <title id="p5x4qlz-title">Nginx Examples project overview</title>
  <desc id="p5x4qlz-desc">Designer-style overview artwork for garethpaul/Nginx-Examples showing purpose, runtime, verification, and project surfaces.</desc>
  <defs>
    <linearGradient id="p5x4qlz-bg" x1="0" y1="0" x2="1" y2="1">
      <stop offset="0%" stop-color="#e9ebed"/>
      <stop offset="48%" stop-color="#f8fafc"/>
      <stop offset="100%" stop-color="#ddf2fc"/>
    </linearGradient>
    <linearGradient id="p5x4qlz-stage" x1="0" y1="0" x2="1" y2="1">
      <stop offset="0%" stop-color="#111827"/>
      <stop offset="58%" stop-color="#202939"/>
      <stop offset="100%" stop-color="#103752"/>
    </linearGradient>
    <linearGradient id="p5x4qlz-accent" x1="0" y1="0" x2="1" y2="1">
      <stop offset="0%" stop-color="#475569"/>
      <stop offset="52%" stop-color="#0ea5e9"/>
      <stop offset="100%" stop-color="#22c55e"/>
    </linearGradient>
    <linearGradient id="p5x4qlz-soft" x1="0" y1="0" x2="1" y2="1">
      <stop offset="0%" stop-color="#d3d6db"/>
      <stop offset="100%" stop-color="#cef2dc"/>
    </linearGradient>
    <filter id="p5x4qlz-shadow" x="-20%" y="-20%" width="140%" height="150%">
      <feDropShadow dx="0" dy="18" stdDeviation="18" flood-color="#0f172a" flood-opacity="0.14"/>
    </filter>
    <filter id="p5x4qlz-miniShadow" x="-20%" y="-20%" width="140%" height="150%">
      <feDropShadow dx="0" dy="8" stdDeviation="10" flood-color="#0f172a" flood-opacity="0.12"/>
    </filter>
    <pattern id="p5x4qlz-grid" width="24" height="24" patternUnits="userSpaceOnUse">
      <path d="M24 0H0v24" fill="none" stroke="#94a3b8" stroke-opacity="0.16" stroke-width="1"/>
    </pattern>
    <style>
      .label { font: 700 13px ui-sans-serif, system-ui, -apple-system, BlinkMacSystemFont, "Segoe UI", sans-serif; letter-spacing: 0; text-transform: uppercase; }
      .body { font-family: ui-sans-serif, system-ui, -apple-system, BlinkMacSystemFont, "Segoe UI", sans-serif; letter-spacing: 0; }
    </style>
  </defs>

  <rect width="1200" height="675" fill="url(#p5x4qlz-bg)"/>
  <rect width="1200" height="675" fill="url(#p5x4qlz-grid)" opacity="0.65"/>
  <circle cx="237" cy="618" r="166" fill="#475569" opacity="0.10"/>
  <circle cx="1001" cy="104" r="192" fill="#0ea5e9" opacity="0.12"/>
  <path d="M66 560 C214 512 278 642 430 584 C576 528 676 408 838 462 C966 504 1034 426 1134 356" fill="none" stroke="#22c55e" stroke-width="2" stroke-opacity="0.18"/>

  <rect x="48" y="38" width="1104" height="599" rx="34" fill="#ffffff" opacity="0.94" filter="url(#p5x4qlz-shadow)"/>
  <rect x="49" y="39" width="1102" height="597" rx="33" fill="none" stroke="#e2e8f0" stroke-width="1"/>

  <g class="body">
    <rect x="84" y="76" width="48" height="48" rx="14" fill="url(#p5x4qlz-accent)"/>
    <rect x="102" y="94" width="34" height="14" rx="4" stroke="#ffffff" stroke-width="4" stroke-linecap="round" stroke-linejoin="round" fill="none"/><rect x="102" y="114" width="34" height="14" rx="4" stroke="#ffffff" stroke-width="4" stroke-linecap="round" stroke-linejoin="round" fill="none"/><path d="M13 11h.1 M13 31h.1 M23 11h10 M23 31h10" transform="translate(98 90)" stroke="#ffffff" stroke-width="4" stroke-linecap="round" stroke-linejoin="round" fill="none"/>
    <text x="148" y="110" fill="#0f172a" font-size="39" font-weight="800">Nginx Examples</text>
    <rect x="910" y="78" width="196" height="36" rx="18" fill="#e0e2e5" stroke="#aab1ba"/>
    <circle cx="934" cy="96" r="6" fill="#475569"/>
    <text x="950" y="101" fill="#1d2637" font-size="15" font-weight="700">Infrastructure</text>
    <text x="86" y="166" fill="#475569" font-size="20" font-weight="500">A small set of sample Nginx configurations for PHP-style site includes and</text>
<text x="86" y="193" fill="#475569" font-size="20" font-weight="500">Tornado</text>
  </g>

  <g transform="translate(84 222)">
    <rect x="0" y="0" width="622" height="328" rx="28" fill="url(#p5x4qlz-stage)"/>
    <rect x="1" y="1" width="620" height="326" rx="27" fill="none" stroke="#ffffff" stroke-opacity="0.12"/>
    <path d="M34 270 C116 228 166 286 250 236 C338 184 430 214 588 96" fill="none" stroke="#ffffff" stroke-opacity="0.12" stroke-width="2"/>
    <circle cx="76" cy="66" r="58" fill="#475569" opacity="0.20"/>
    <circle cx="548" cy="74" r="78" fill="#0ea5e9" opacity="0.16"/>
    <g class="body">
    <rect x="70" y="56" width="266" height="216" rx="24" fill="#0f172a" filter="url(#p5x4qlz-miniShadow)"/>
    <circle cx="102" cy="86" r="7" fill="#ef4444"/>
    <circle cx="126" cy="86" r="7" fill="#f59e0b"/>
    <circle cx="150" cy="86" r="7" fill="#22c55e"/>
    <text x="98" y="132" fill="#67e8f9" font-size="17" font-weight="800">$ make check</text>
    <rect x="98" y="156" width="172" height="12" rx="6" fill="#334155"/>
    <rect x="98" y="184" width="124" height="12" rx="6" fill="#0ea5e9"/>
    <rect x="98" y="212" width="196" height="12" rx="6" fill="#334155"/>
    <rect x="98" y="240" width="88" height="12" rx="6" fill="#22c55e"/>
    <rect x="390" y="64" width="142" height="70" rx="20" fill="#ffffff" opacity="0.94"/>
    <rect x="390" y="160" width="142" height="70" rx="20" fill="#ffffff" opacity="0.94"/>
    <text x="461" y="106" fill="#0f172a" font-size="17" font-weight="800" text-anchor="middle">config</text>
    <text x="461" y="202" fill="#0f172a" font-size="17" font-weight="800" text-anchor="middle">deploy</text>
    <path d="M336 164h52 M461 134v24" stroke="#ffffff" stroke-width="5" stroke-linecap="round" opacity="0.78"/>
    <path d="M374 151l18 13-18 13" fill="#ffffff" opacity="0.82"/>
    <rect x="451" y="78" width="34" height="14" rx="4" stroke="#475569" stroke-width="4" stroke-linecap="round" stroke-linejoin="round" fill="none"/><rect x="451" y="98" width="34" height="14" rx="4" stroke="#475569" stroke-width="4" stroke-linecap="round" stroke-linejoin="round" fill="none"/><path d="M13 11h.1 M13 31h.1 M23 11h10 M23 31h10" transform="translate(447 74)" stroke="#475569" stroke-width="4" stroke-linecap="round" stroke-linejoin="round" fill="none"/>
    <circle cx="466" cy="191" r="17" stroke="#22c55e" stroke-width="4" stroke-linecap="round" stroke-linejoin="round" fill="none"/><path d="M13 21l6 6 12-13" transform="translate(445 170)" stroke="#22c55e" stroke-width="4" stroke-linecap="round" stroke-linejoin="round" fill="none"/>
  </g>
  </g>

  <g class="body" transform="translate(742 222)">
    <rect x="0" y="0" width="364" height="302" rx="26" fill="#f8fafc" stroke="#e2e8f0"/>
    <rect x="22" y="22" width="320" height="52" rx="18" fill="#ffffff" stroke="#e5e7eb"/>
    <text x="44" y="55" fill="#0f172a" font-size="20" font-weight="800">Project system map</text>
    <g transform="translate(24 94)">
      <circle cx="10" cy="15" r="6" fill="#475569"/>
      <text x="28" y="11" fill="#64748b" font-size="12" font-weight="800">STACK</text>
      <text x="28" y="34" fill="#1f2937" font-size="15" font-weight="650">Makefile, Python</text>
    </g>
<g transform="translate(24 145)">
      <circle cx="10" cy="15" r="6" fill="#0ea5e9"/>
      <text x="28" y="11" fill="#64748b" font-size="12" font-weight="800">SURFACE</text>
      <text x="28" y="34" fill="#1f2937" font-size="15" font-weight="650">Docs: README and project notes</text>
    </g>
<g transform="translate(24 196)">
      <circle cx="10" cy="15" r="6" fill="#22c55e"/>
      <text x="28" y="11" fill="#64748b" font-size="12" font-weight="800">VERIFY</text>
      <text x="28" y="34" fill="#1f2937" font-size="15" font-weight="650">make lint</text>
    </g>
<g transform="translate(24 247)">
      <circle cx="10" cy="15" r="6" fill="#475569"/>
      <text x="28" y="11" fill="#64748b" font-size="12" font-weight="800">FOCUS</text>
      <text x="28" y="34" fill="#1f2937" font-size="15" font-weight="650">repeatable checks + network boundary</text>
    </g>
  </g>
  <g class="body">
    <rect x="84" y="574" width="158.8" height="30" rx="15" fill="#e2e4e7" stroke="#b2b8c0"/>
    <text x="100" y="594" fill="#323d51" font-size="13" font-weight="800">Infrastructure</text>
<rect x="252.8" y="574" width="115.6" height="30" rx="15" fill="#d8f1fb" stroke="#9ad9f6"/>
    <text x="268.8" y="594" fill="#0e6fa0" font-size="13" font-weight="800">Makefile</text>
<rect x="378.4" y="574" width="101.2" height="30" rx="15" fill="#dcf6e5" stroke="#a2e7bb"/>
    <text x="394.4" y="594" fill="#1b834a" font-size="13" font-weight="800">Python</text>
<rect x="489.59999999999997" y="574" width="92" height="30" rx="15" fill="#e2e4e7" stroke="#b2b8c0"/>
    <text x="505.59999999999997" y="594" fill="#323d51" font-size="13" font-weight="800">Docs</text>
<rect x="591.5999999999999" y="574" width="180.4" height="30" rx="15" fill="#d8f1fb" stroke="#9ad9f6"/>
    <text x="607.5999999999999" y="594" fill="#0e6fa0" font-size="13" font-weight="800">repeatable checks</text>
  </g>

  <g class="body">
    <text x="84" y="613" fill="#64748b" font-size="15" font-weight="600">garethpaul/Nginx-Examples</text>
    <text x="1008" y="613" fill="#94a3b8" font-size="14" text-anchor="end">Source-aware README artwork</text>
    <circle cx="1028" cy="609" r="4" fill="#475569"/>
    <circle cx="1044" cy="609" r="4" fill="#0ea5e9"/>
    <circle cx="1060" cy="609" r="4" fill="#22c55e"/>
  </g>
</svg>
